<?xml version="1.0" encoding="UTF-8"?>
<svg width="1240px" height="678px" viewBox="0 0 1240 678" version="1.1" xmlns="http://www.w3.org/2000/svg" xmlns:xlink="http://www.w3.org/1999/xlink">
    <title>运动手表</title>
    <g id="Page-1" stroke="none" stroke-width="1" fill="none" fill-rule="evenodd">
        <g id="30-Startup-Story-Illustrations" transform="translate(-1731.000000, -6958.000000)">
            <g id="运动手表" transform="translate(1738.000000, 6961.000000)">
                <g id="BG" transform="translate(0.000000, 0.499026)">
                    <path d="M877.152616,287.478567 C873.146424,276.525892 851.189687,278.379917 851.186888,247.839249 C851.18129,201.853271 920.534962,207.101793 924.624428,172.453433 C928.714594,137.805074 884.148234,138.633751 882.768984,109.408887 C881.389734,80.1847232 915.276178,19.88307 966.691203,19.88307 C1007.23248,19.88307 973.653932,66.4121666 1006.37246,87.2193794 C1039.09098,108.026592 1076.46019,81.3703472 1094.95446,114.089793 C1120.42964,159.160306 1055.2879,213.288175 1061.7146,247.839249 C1068.1413,282.390322 1106.32924,274.220434 1107.49786,312.184202 C1108.66648,350.147969 1053.19348,356.828478 1058.42008,389.382048 C1061.7146,409.902304 1096.82075,403.05032 1098.66255,443.514117 C1100.22094,477.773334 979.602691,520.164644 888.993453,450.450088 C798.384216,380.735531 892.443328,329.282665 877.152616,287.478567" id="Fill-1" fill="#D6EEFF"></path>
                    <line x1="976.384861" y1="202.494166" x2="976.384861" y2="571.268752" id="Stroke-3" stroke="#E8F6FF" stroke-width="10.5" stroke-linecap="square"></line>
                    <line x1="1012.16622" y1="416.928911" x2="1036.25166" y2="394.015011" id="Stroke-5" stroke="#E8F6FF" stroke-width="8.4" stroke-linecap="square"></line>
                    <line x1="1004.82477" y1="293.73249" x2="1028.91021" y2="270.817889" id="Stroke-7" stroke="#E8F6FF" stroke-width="8.4" stroke-linecap="square"></line>
                    <path d="M1208.25057,453.452712 C1208.25057,499.005454 1171.32922,535.933375 1125.78458,535.933375 C1080.24064,535.933375 1043.31998,499.005454 1043.31998,453.452712 C1043.31998,407.900671 1080.24064,370.97275 1125.78458,370.97275 C1171.32922,370.97275 1208.25057,407.900671 1208.25057,453.452712" id="Fill-9" fill="#E8F6FF"></path>
                    <line x1="1004.82477" y1="232.134139" x2="1028.91021" y2="209.219539" id="Stroke-11" stroke="#E8F6FF" stroke-width="8.4" stroke-linecap="square"></line>
                    <line x1="941.632099" y1="244.024815" x2="917.546657" y2="219.935789" id="Stroke-13" stroke="#E8F6FF" stroke-width="8.4" stroke-linecap="square"></line>
                    <path d="M127.211565,363.798674 C127.211565,433.051999 178.586004,471.687667 245.499572,471.687667 C312.413141,471.687667 363.787579,433.051999 363.787579,363.798674 C363.787579,217.987908 288.289911,49.8910478 245.499572,49.8910478 C202.709233,49.8910478 127.211565,217.987908 127.211565,363.798674" id="Fill-15" fill="#D6EEFF"></path>
                    <line x1="245.499642" y1="207.85992" x2="245.499642" y2="571.269102" id="Stroke-17" stroke="#E8F6FF" stroke-width="10.5" stroke-linecap="square"></line>
                    <line x1="213.052838" y1="305.675518" x2="186.900271" y2="278.205993" id="Stroke-19" stroke="#E8F6FF" stroke-width="7" stroke-linecap="square"></line>
                    <line x1="213.052838" y1="261.300771" x2="186.900271" y2="233.831247" id="Stroke-21" stroke="#E8F6FF" stroke-width="7" stroke-linecap="square"></line>
                    <path d="M521.343624,368.154898 C521.343624,437.508308 465.131664,493.730266 395.790588,493.730266 C326.450211,493.730266 270.238251,437.508308 270.238251,368.154898 C270.238251,298.801487 326.450211,242.579529 395.790588,242.579529 C465.131664,242.579529 521.343624,298.801487 521.343624,368.154898" id="Fill-23" fill="#F1FAFF"></path>
                    <line x1="395.791008" y1="343.80824" x2="395.791008" y2="575.205108" id="Stroke-25" stroke="#DEF2FF" stroke-width="10.5" stroke-linecap="square"></line>
                    <line x1="425.560345" y1="363.655125" x2="445.637494" y2="343.575104" id="Stroke-27" stroke="#DEF2FF" stroke-width="10.5" stroke-linecap="square"></line>
                    <line x1="366.02097" y1="410.726571" x2="345.944521" y2="390.646551" id="Stroke-29" stroke="#DEF2FF" stroke-width="10.5" stroke-linecap="square"></line>
                    <line x1="366.02097" y1="365.70939" x2="345.944521" y2="345.62937" id="Stroke-31" stroke="#DEF2FF" stroke-width="10.5" stroke-linecap="square"></line>
                    <line x1="1125.83944" y1="458.159934" x2="1125.83944" y2="571.268752" id="Stroke-33" stroke="#D6EEFF" stroke-width="10.5" stroke-linecap="square"></line>
                    <line x1="1146.1711" y1="470.822315" x2="1163.05449" y2="454.219378" id="Stroke-35" stroke="#D6EEFF" stroke-width="6.3" stroke-linecap="square"></line>
                    <line x1="1107.39598" y1="488.17617" x2="1086.7765" y2="469.554033" id="Stroke-37" stroke="#D6EEFF" stroke-width="6.3" stroke-linecap="square"></line>
                    <path d="M930.988572,428.450602 C930.988572,500.182959 884.157051,532.373983 826.616225,532.373983 C769.080996,532.373983 722.248776,500.182959 722.248776,428.450602 C722.248776,294.830627 779.208092,170.04824 826.616225,170.04824 C874.029955,170.04824 930.988572,294.830627 930.988572,428.450602" id="Fill-39" fill="#F1FAFF"></path>
                    <line x1="826.618744" y1="312.314243" x2="826.618744" y2="571.268822" id="Stroke-41" stroke="#D6EEFF" stroke-width="10.5" stroke-linecap="square"></line>
                    <line x1="849.979782" y1="456.721157" x2="874.065224" y2="432.632131" id="Stroke-43" stroke="#D6EEFF" stroke-width="10.5" stroke-linecap="square"></line>
                    <line x1="849.979782" y1="341.11427" x2="874.065224" y2="317.024544" id="Stroke-45" stroke="#D6EEFF" stroke-width="10.5" stroke-linecap="square"></line>
                    <line x1="798.292966" y1="350.687589" x2="773.887028" y2="326.277311" id="Stroke-47" stroke="#D6EEFF" stroke-width="10.5" stroke-linecap="square"></line>
                    <path d="M214.3055,416.754287 C214.3055,472.318343 187.457359,522.785055 126.671692,522.785055 C65.8860237,522.785055 39.0378833,472.318343 39.0378833,416.754287 C39.0378833,351.573658 84.9715968,286.758374 126.671692,286.758374 C168.371087,286.758374 214.3055,351.573658 214.3055,416.754287" id="Fill-49" fill="#E8F6FF"></path>
                    <line x1="126.671692" y1="404.071749" x2="126.671692" y2="571.269242" id="Stroke-51" stroke="#D6EEFF" stroke-width="10.5" stroke-linecap="square"></line>
                    <line x1="149.722171" y1="424.463083" x2="171.172972" y2="400.373357" id="Stroke-53" stroke="#D6EEFF" stroke-width="7" stroke-linecap="square"></line>
                    <line x1="103.620932" y1="473.961559" x2="82.1708306" y2="449.871833" id="Stroke-55" stroke="#D6EEFF" stroke-width="7" stroke-linecap="square"></line>
                    <line x1="103.620932" y1="425.452107" x2="82.1708306" y2="401.363081" id="Stroke-57" stroke="#D6EEFF" stroke-width="7" stroke-linecap="square"></line>
                    <path d="M366.124817,539.042383 C365.704954,539.593202 356.730382,561.115708 357.798233,581.516982 L326.192345,581.516982 C325.589842,570.364836 318.804855,562.804558 318.804855,562.804558 C318.804855,562.804558 332.722614,560.280032 342.129645,577.056543 C342.129645,577.056543 349.249822,546.788834 366.124817,539.042383" id="Fill-59" fill="#D6EEFF"></path>
                    <path d="M325.613634,538.236523 C326.133564,538.788041 337.240341,560.310548 335.919172,580.711821 L375.035709,580.711821 C375.781666,569.559676 384.178926,553.600643 384.178926,553.600643 C384.178926,553.600643 366.954046,559.474172 355.311245,576.250683 C355.311245,576.250683 346.49902,545.983674 325.613634,538.236523" id="Fill-61" fill="#D6EEFF"></path>
                    <path d="M937.804488,542.865146 C938.246044,543.453059 951.576695,561.244419 953.248449,577.628988 L976.684503,577.628988 C965.620413,555.638251 938.413289,543.138106 937.804488,542.865146" id="Fill-63" fill="#D6EEFF"></path>
                    <path d="M998.480292,552.174955 C998.168193,552.605391 988.725474,565.632558 987.540761,577.628079 L970.941476,577.628079 C978.77752,561.526967 998.049232,552.374425 998.480292,552.174955" id="Fill-65" fill="#D6EEFF"></path>
                    <path d="M1150.92255,553.435328 C1150.61115,553.865764 1141.16843,566.892931 1139.98301,578.889151 L1123.38373,578.889151 C1131.22047,562.78734 1150.49149,553.635498 1150.92255,553.435328" id="Fill-67" fill="#D6EEFF"></path>
                    <path d="M901.822997,552.174955 C901.510899,552.605391 892.06888,565.632558 890.883467,577.628079 L874.284182,577.628079 C882.120226,561.526967 901.391938,552.374425 901.822997,552.174955" id="Fill-69" fill="#D6EEFF"></path>
                    <path d="M1068.47593,577.630248 L1043.64803,577.630248 C1043.50248,559.790595 1034.34737,536.567341 1034.34737,536.567341 C1034.34737,536.567341 1061.59018,558.817039 1068.47593,577.630248" id="Fill-71" fill="#D6EEFF"></path>
                    <path d="M1075.93564,577.630248 C1081.93548,564.927133 1082.29657,554.693951 1082.29657,554.693951 C1082.29657,554.693951 1094.07372,567.495752 1099.09109,577.630248 L1075.93564,577.630248 Z" id="Fill-73" fill="#D6EEFF"></path>
                    <path d="M57.0676409,577.630248 C63.0681831,564.927133 63.4285655,554.693951 63.4285655,554.693951 C63.4285655,554.693951 75.2057231,567.495752 80.2230861,577.630248 L57.0676409,577.630248 Z" id="Fill-75" fill="#D6EEFF"></path>
                    <path d="M216.216856,536.729437 C216.736087,537.280255 227.843563,558.802762 226.522394,579.204035 L265.638932,579.204035 C266.384888,568.051889 274.782148,552.092857 274.782148,552.092857 C274.782148,552.092857 257.557268,557.966386 245.914467,574.742897 C245.914467,574.742897 237.102242,544.475887 216.216856,536.729437" id="Fill-77" fill="#D6EEFF"></path>
                    <path d="M162.009812,540.220029 C161.543764,541.118695 152.129736,557.436774 149.650444,576.512444 L112.360311,580.338776 C109.81944,563.380292 104.336729,553.940093 104.336729,553.940093 C104.336729,553.940093 119.99552,558.493617 128.354293,571.811242 C128.354293,571.811242 138.041232,551.322481 162.009812,540.220029" id="Fill-79" fill="#D6EEFF"></path>
                    <path d="M528.491022,258.591403 L697.077918,258.591403 C697.077918,280.930689 678.971326,299.039802 656.636713,299.039802 L568.932228,299.039802 C546.597615,299.039802 528.491022,280.930689 528.491022,258.591403" id="Fill-81" fill="#AAD5FF"></path>
                    <path d="M528.491022,499.23509 L697.077918,499.23509 L697.077918,501.448161 C697.077918,506.658188 692.854796,510.882761 687.645696,510.882761 L537.923245,510.882761 C532.714144,510.882761 528.491022,506.658188 528.491022,501.448161 L528.491022,499.23509 Z" id="Fill-83" fill="#C3E4FF"></path>
                    <path d="M792.570443,414.258877 L432.999058,414.258877 C432.999058,392.250643 450.836938,374.40959 472.841259,374.40959 L752.728242,374.40959 C774.732562,374.40959 792.570443,392.250643 792.570443,414.258877" id="Fill-85" fill="#CFEDFF"></path>
                    <path d="M473.891406,414.258877 L751.677674,414.258877 C751.677674,443.305268 728.135255,466.852574 699.093331,466.852574 L526.47575,466.852574 C497.434525,466.852574 473.891406,443.305268 473.891406,414.258877" id="Fill-87" fill="#AAD5FF"></path>
                    <path d="M698.702578,374.413999 L526.866642,374.413999 C558.8735,374.227827 584.768551,340.560722 584.768551,299.040082 L640.80067,299.040082 C640.80067,340.560722 666.696421,374.227827 698.702578,374.413999" id="Fill-89" fill="#C3E4FF"></path>
                    <path d="M669.098317,218.141325 L556.471463,218.141325 C588.477621,218.004845 597.094609,193.317408 597.094609,162.870525 L628.474471,162.870525 C628.474471,193.317408 637.09146,218.004845 669.098317,218.141325" id="Fill-91" fill="#C3E4FF"></path>
                    <path d="M722.843372,258.591403 L502.725289,258.591403 L502.725289,258.591403 C502.725289,236.251418 520.832581,218.141605 543.168593,218.141605 L682.400767,218.141605 C704.73678,218.141605 722.843372,236.251418 722.843372,258.591403 Z" id="Fill-93" fill="#CFEDFF"></path>
                    <polygon id="Fill-95" fill="#C3E4FF" points="877.26535 578.638449 348.303731 578.638449 345.712476 525.711601 879.857304 525.711601"></polygon>
                    <path d="M885.059897,525.711531 L340.509464,525.711531 C333.795854,525.711531 328.35303,520.268439 328.35303,513.552935 L328.35303,510.700858 L897.21633,510.700858 L897.21633,513.552935 C897.21633,520.268439 891.774206,525.711531 885.059897,525.711531" id="Fill-97" fill="#D6EEFF"></path>
                    <path d="M349.672344,561.482104 L875.897156,561.482104 C882.610766,561.482104 888.05359,566.925196 888.05359,573.6407 L888.05359,576.492777 L337.515911,576.492777 L337.515911,573.6407 C337.515911,566.925196 342.958735,561.482104 349.672344,561.482104" id="Fill-99" fill="#D6EEFF"></path>
                    <line x1="435.487656" y1="414.397947" x2="435.487656" y2="481.672665" id="Stroke-101" stroke="#D1EFFF" stroke-width="5.6"></line>
                    <line x1="435.487656" y1="492.040647" x2="435.487656" y2="507.094013" id="Stroke-103" stroke="#D1EFFF" stroke-width="5.6"></line>
                    <line x1="464.822715" y1="414.397947" x2="464.822715" y2="481.672665" id="Stroke-105" stroke="#D1EFFF" stroke-width="5.6"></line>
                    <line x1="464.822715" y1="491.762438" x2="464.822715" y2="507.093664" id="Stroke-107" stroke="#D1EFFF" stroke-width="5.6"></line>
                    <line x1="495.553888" y1="467.803313" x2="495.553888" y2="483.135238" id="Stroke-109" stroke="#D1EFFF" stroke-width="5.6"></line>
                    <line x1="553.303177" y1="303.765501" x2="553.303177" y2="336.032813" id="Stroke-111" stroke="#D1EFFF" stroke-width="5.6"></line>
                    <line x1="670.92766" y1="301.820629" x2="670.92766" y2="315.471404" id="Stroke-113" stroke="#D1EFFF" stroke-width="5.6"></line>
                    <line x1="480.677932" y1="452.59149" x2="480.677932" y2="501.393849" id="Stroke-115" stroke="#D1EFFF" stroke-width="5.6"></line>
                    <line x1="450.009248" y1="414.397947" x2="450.009248" y2="436.408981" id="Stroke-117" stroke="#D1EFFF" stroke-width="5.6"></line>
                    <line x1="450.009248" y1="447.755837" x2="450.009248" y2="501.393779" id="Stroke-119" stroke="#D1EFFF" stroke-width="5.6"></line>
                    <line x1="536.933698" y1="367.854222" x2="536.933698" y2="313.773946" id="Stroke-121" stroke="#D1EFFF" stroke-width="5.6"></line>
                    <line x1="536.933698" y1="306.720253" x2="536.933698" y2="291.689283" id="Stroke-123" stroke="#D1EFFF" stroke-width="5.6"></line>
                    <line x1="505.649005" y1="370.141133" x2="505.649005" y2="313.773596" id="Stroke-125" stroke="#D1EFFF" stroke-width="5.6"></line>
                    <line x1="505.649005" y1="305.32011" x2="505.649005" y2="290.130964" id="Stroke-127" stroke="#D1EFFF" stroke-width="5.6"></line>
                    <line x1="505.649005" y1="284.083651" x2="505.649005" y2="258.41356" id="Stroke-129" stroke="#D1EFFF" stroke-width="5.6"></line>
                    <line x1="521.44712" y1="365.533017" x2="521.44712" y2="351.698169" id="Stroke-131" stroke="#D1EFFF" stroke-width="5.6"></line>
                    <line x1="521.44712" y1="344.404271" x2="521.44712" y2="300.886128" id="Stroke-133" stroke="#D1EFFF" stroke-width="5.6"></line>
                    <line x1="521.44712" y1="293.418446" x2="521.44712" y2="258.41384" id="Stroke-135" stroke="#D1EFFF" stroke-width="5.6"></line>
                    <line x1="744.64154" y1="489.683257" x2="744.64154" y2="505.553402" id="Stroke-137" stroke="#D1EFFF" stroke-width="5.6"></line>
                    <line x1="744.64154" y1="453.452712" x2="744.64154" y2="482.509601" id="Stroke-139" stroke="#D1EFFF" stroke-width="5.6"></line>
                    <line x1="774.364762" y1="414.258877" x2="774.364762" y2="444.135345" id="Stroke-141" stroke="#D1EFFF" stroke-width="5.6"></line>
                    <line x1="774.364762" y1="450.680493" x2="774.364762" y2="507.876707" id="Stroke-143" stroke="#D1EFFF" stroke-width="5.6"></line>
                    <line x1="790.429421" y1="414.258877" x2="790.429421" y2="458.126269" id="Stroke-145" stroke="#D1EFFF" stroke-width="5.6"></line>
                    <line x1="790.429421" y1="469.211294" x2="790.429421" y2="506.092322" id="Stroke-147" stroke="#D1EFFF" stroke-width="5.6"></line>
                    <line x1="759.35522" y1="414.258877" x2="759.35522" y2="436.270611" id="Stroke-149" stroke="#D1EFFF" stroke-width="5.6"></line>
                    <line x1="729.277983" y1="465.986593" x2="729.277983" y2="487.998327" id="Stroke-151" stroke="#D1EFFF" stroke-width="5.6"></line>
                    <line x1="759.35522" y1="443.299459" x2="759.35522" y2="501.638603" id="Stroke-153" stroke="#D1EFFF" stroke-width="5.6"></line>
                    <line x1="704.2454" y1="257.970106" x2="704.2454" y2="299.040012" id="Stroke-155" stroke="#D1EFFF" stroke-width="5.6"></line>
                    <line x1="704.2454" y1="307.232157" x2="704.2454" y2="330.709473" id="Stroke-157" stroke="#D1EFFF" stroke-width="5.6"></line>
                    <line x1="704.2454" y1="337.00063" x2="704.2454" y2="361.713963" id="Stroke-159" stroke="#D1EFFF" stroke-width="5.6"></line>
                    <line x1="720.126998" y1="257.970106" x2="720.126998" y2="293.355455" id="Stroke-161" stroke="#D1EFFF" stroke-width="5.6"></line>
                    <line x1="720.126998" y1="300.60435" x2="720.126998" y2="322.674175" id="Stroke-163" stroke="#D1EFFF" stroke-width="5.6"></line>
                    <line x1="720.126998" y1="330.485297" x2="720.126998" y2="365.533297" id="Stroke-165" stroke="#D1EFFF" stroke-width="5.6"></line>
                    <line x1="688.447284" y1="297.725467" x2="688.447284" y2="324.643473" id="Stroke-167" stroke="#D1EFFF" stroke-width="5.6"></line>
                    <line x1="688.447284" y1="331.833087" x2="688.447284" y2="365.533087" id="Stroke-169" stroke="#D1EFFF" stroke-width="5.6"></line>
                    <line x1="541.24751" y1="187.928207" x2="541.24751" y2="213.263049" id="Stroke-171" stroke="#D1EFFF" stroke-width="5.6"></line>
                    <line x1="541.24751" y1="167.588875" x2="541.24751" y2="178.985984" id="Stroke-173" stroke="#D1EFFF" stroke-width="5.6"></line>
                    <line x1="541.24751" y1="120.401246" x2="541.24751" y2="159.993672" id="Stroke-175" stroke="#D1EFFF" stroke-width="5.6"></line>
                    <line x1="554.76556" y1="163.971462" x2="554.76556" y2="206.51535" id="Stroke-177" stroke="#D1EFFF" stroke-width="5.6"></line>
                    <line x1="670.411019" y1="145.714041" x2="670.411019" y2="197.501457" id="Stroke-179" stroke="#D1EFFF" stroke-width="5.6"></line>
                    <line x1="554.76556" y1="143.63248" x2="554.76556" y2="155.029589" id="Stroke-181" stroke="#D1EFFF" stroke-width="5.6"></line>
                    <path d="M544.676322,67.8522729 C542.478339,72.6311639 541.24744,77.9664723 541.24744,83.5845387 L541.24744,109.197939" id="Stroke-183" stroke="#D1EFFF" stroke-width="5.6"></path>
                    <path d="M556.377274,53.468217 C553.945567,55.2529522 551.736388,57.3428422 549.804318,59.682595" id="Stroke-185" stroke="#D1EFFF" stroke-width="5.6"></path>
                    <path d="M612.78447,109.197799 L612.78447,83.5843988 C612.78447,63.2727124 596.689022,46.6550779 577.01634,46.6550779 L577.01564,46.6550779 C571.556022,46.6550779 566.370713,47.935188 561.729828,50.2189491" id="Stroke-187" stroke="#D1EFFF" stroke-width="5.6"></path>
                    <line x1="684.32171" y1="158.470698" x2="684.32171" y2="213.262769" id="Stroke-189" stroke="#D1EFFF" stroke-width="5.6"></line>
                    <line x1="684.32171" y1="120.401246" x2="684.32171" y2="142.373086" id="Stroke-191" stroke="#D1EFFF" stroke-width="5.6"></line>
                    <line x1="657.427035" y1="159.993532" x2="657.427035" y2="181.965372" id="Stroke-193" stroke="#D1EFFF" stroke-width="5.6"></line>
                    <polyline id="Stroke-195" stroke="#D1EFFF" stroke-width="5.6" points="684.32171 97.4506015 684.32171 101.039669 684.32171 110.829117"></polyline>
                    <polyline id="Stroke-197" stroke="#D1EFFF" stroke-width="5.6" points="568.141906 159.762566 568.141906 163.351634 568.141906 173.141081"></polyline>
                    <path d="M677.789412,62.3730658 C681.90127,68.3851738 684.32178,75.7067875 684.32178,83.5841188" id="Stroke-199" stroke="#D1EFFF" stroke-width="5.6"></path>
                    <path d="M612.78447,109.197799 L612.78447,83.5843988 C612.78447,63.2727124 628.880619,46.6550779 648.5533,46.6550779 C656.169615,46.6550779 663.249205,49.1453084 669.067107,53.3768806" id="Stroke-201" stroke="#D1EFFF" stroke-width="5.6"></path>
                    <path d="M582.802262,114.762393 L582.802262,104.87636 C582.802262,97.0368228 576.589689,90.6229745 568.996467,90.6229745 C566.888754,90.6229745 564.887407,91.1171011 563.095992,91.9982704" id="Stroke-203" stroke="#D1EFFF" stroke-width="5.6"></path>
                    <path d="M643.789674,114.762393 L643.789674,104.87636 C643.789674,97.0368228 650.002247,90.6229745 657.59547,90.6229745 C660.535211,90.6229745 663.267819,91.5839319 665.512687,93.2167896" id="Stroke-205" stroke="#D1EFFF" stroke-width="5.6"></path>
                    <path d="M572.832895,69.2708924 C569.84557,69.4549651 567.008695,70.2388488 564.433536,71.5063607" id="Stroke-207" stroke="#D1EFFF" stroke-width="5.6"></path>
                    <path d="M597.06074,109.197799 L597.06074,92.8293271 C597.06074,82.6269408 590.706813,73.8831381 581.883392,70.6076241" id="Stroke-209" stroke="#D1EFFF" stroke-width="5.6"></path>
                    <path d="M632.324755,78.6832359 C636.505891,72.9517863 643.148124,69.2283387 650.591595,69.2283387 C655.459207,69.2283387 659.983231,70.8206025 663.701118,73.5243013" id="Stroke-211" stroke="#D1EFFF" stroke-width="5.6"></path>
                    <path d="M627.733203,109.197799 L627.733203,92.8293271 C627.733203,90.2404112 628.14257,87.7459813 628.896923,85.4104278" id="Stroke-213" stroke="#D1EFFF" stroke-width="5.6"></path>
                    <path d="M594.36557,6.94660935 C589.219449,2.65274642 583.30008,0.201010177 577.01613,0.201010177 L577.01613,0.201010177" id="Stroke-215" stroke="#D1EFFF" stroke-width="5.6"></path>
                    <path d="M612.78447,90.6228345 L612.78447,53.5920287 C612.78447,38.815821 608.709,25.3911128 602.153539,15.6996507" id="Stroke-217" stroke="#D1EFFF" stroke-width="5.6"></path>
                    <path d="M640.924249,1.43149761 C643.384647,0.625917134 645.937414,0.201080166 648.55316,0.201080166" id="Stroke-219" stroke="#D1EFFF" stroke-width="5.6"></path>
                    <path d="M612.78447,90.6228345 L612.78447,53.5920287 C612.78447,32.9324939 620.751371,14.9164669 632.325595,6.04948245" id="Stroke-221" stroke="#D1EFFF" stroke-width="5.6"></path>
                    <path d="M668.647244,134.318191 L556.921696,134.318191 C556.921696,120.44485 568.167027,109.197519 582.037202,109.197519 L643.531039,109.197519 C657.402613,109.197519 668.647244,120.44485 668.647244,134.318191" id="Fill-223" fill="#CFEDFF"></path>
                    <path d="M675.52677,499.418952 L550.042311,499.418952 C550.042311,481.433021 564.620654,466.852784 582.603387,466.852784 L642.966393,466.852784 C660.949126,466.852784 675.52677,481.433021 675.52677,499.418952" id="Fill-225" fill="#AAD5FF"></path>
                    <path d="M568.141906,134.318191 L657.427175,134.318191 C657.427175,150.086852 644.646545,162.870455 628.879989,162.870455 L596.689092,162.870455 C580.923236,162.870455 568.141906,150.086852 568.141906,134.318191" id="Fill-227" fill="#AAD5FF"></path>
                    <line x1="432.998778" y1="414.258877" x2="792.570163" y2="414.258877" id="Stroke-229" stroke="#C3E4FF" stroke-width="10.5"></line>
                    <path d="M347.08067,538.897435 C367.537796,538.897435 367.537796,546.832858 387.994921,546.832858 C408.452746,546.832858 408.452746,538.897435 428.909872,538.897435 C449.367697,538.897435 449.367697,546.832858 469.825523,546.832858 C490.284748,546.832858 490.284748,538.897435 510.743273,538.897435 C531.203197,538.897435 531.203197,546.832858 551.662422,546.832858 C572.120947,546.832858 572.120947,538.897435 592.580172,538.897435 C613.039397,538.897435 613.039397,546.832858 633.498622,546.832858 C653.958547,546.832858 653.958547,538.897435 674.417072,538.897435 C694.875597,538.897435 694.875597,546.832858 715.334822,546.832858 C735.794047,546.832858 735.794047,538.897435 756.253272,538.897435 C776.713196,538.897435 776.713196,546.832858 797.173121,546.832858 C817.634445,546.832858 817.634445,538.897435 838.09507,538.897435 C858.555694,538.897435 858.555694,546.832858 879.017718,546.832858" id="Stroke-231" stroke="#D1EFFF" stroke-width="10.5" stroke-linecap="square"></path>
                    <path d="M441.246777,388.730795 C460.645848,388.730795 460.645848,397.142847 480.044219,397.142847 C499.44259,397.142847 499.44259,388.730795 518.840261,388.730795 C538.239332,388.730795 538.239332,397.142847 557.638403,397.142847 C577.036074,397.142847 577.036074,388.730795 596.434445,388.730795 C615.832116,388.730795 615.832116,397.142847 635.230487,397.142847 C654.629558,397.142847 654.629558,388.730795 674.027929,388.730795 C693.427,388.730795 693.427,397.142847 712.825371,397.142847 C732.225841,397.142847 732.225841,388.730795 751.627011,388.730795 C771.028881,388.730795 771.028881,397.142847 790.429351,397.142847" id="Stroke-233" stroke="#C3E4FF" stroke-width="10.5"></path>
                    <line x1="502.725849" y1="258.591053" x2="722.843932" y2="258.591053" id="Stroke-235" stroke="#C3E4FF" stroke-width="10.5"></line>
                    <path d="M718.715139,240.623809 C701.013014,240.623809 701.013014,232.687687 683.31019,232.687687 C665.607366,232.687687 665.607366,240.623809 647.905242,240.623809 C630.202417,240.623809 630.202417,232.687687 612.498893,232.687687 C594.79537,232.687687 594.79537,240.623809 577.092545,240.623809 C559.387622,240.623809 559.387622,232.688387 541.681999,232.688387 C523.977075,232.688387 523.977075,240.623809 506.271452,240.623809" id="Stroke-237" stroke="#C3E4FF" stroke-width="10.5"></path>
                    <line x1="556.922956" y1="134.316092" x2="668.647804" y2="134.313992" id="Stroke-239" stroke="#C3E4FF" stroke-width="10.5"></line>
                    <g id="Group-244" transform="translate(0.000000, 580.913811)">
                        <line x1="1225.56922" y1="0.90902513" x2="0.000279908676" y2="0.90902513" id="Fill-241" fill="#E8F6FF"></line>
                        <line x1="1225.56922" y1="0.90902513" x2="0.000279908676" y2="0.90902513" id="Stroke-243" stroke="#D6EEFF" stroke-width="14" stroke-linecap="round"></line>
                    </g>
                </g>
                <g id="Woman" transform="translate(100.067352, 112.482411)">
                    <path d="M35.7967508,362.151818 C35.7967508,362.151818 14.7784083,385.695625 0.141983676,392.786973 L29.6450579,329.442871 L48.046954,341.206026 L35.7967508,362.151818 Z" id="Fill-246" fill="#0B096F"></path>
                    <path d="M258.642194,278.472514 L178.090076,398.732871 C170.529042,410.021496 156.002482,414.324458 143.515056,408.973751 L36.3604169,363.061963 L51.8386669,344.177365 L156.537108,372.127018 L223.503859,261.756894 L258.642194,278.472514 Z" id="Fill-248" fill="#FF77CA"></path>
                    <polygon id="Fill-250" fill="#EF3C86" points="205.307206 360.955696 176.699839 340.026001 171.452251 348.674618"></polygon>
                    <polygon id="Fill-252" fill="#D9CEC1" points="59.9067546 345.596964 48.604742 368.61375 35.796121 362.152308 48.0491233 341.207916"></polygon>
                    <polygon id="Fill-254" fill="#25003F" points="281.678958 85.0410926 266.787117 153.905275 365.637566 175.289203 380.530107 106.42502"></polygon>
                    <path d="M381.277533,102.967743 C375.373559,130.269292 348.45894,147.614819 321.161546,141.709795 C293.864852,135.804771 276.522411,108.885365 282.426384,81.5831157 C288.330358,54.2815664 315.245677,36.9360399 342.542371,42.8410638 C369.839065,48.7460876 387.181507,75.6661936 381.277533,102.967743" id="Fill-256" fill="#25003F"></path>
                    <path d="M29.5890062,558.786384 C29.5890062,560.184077 124.085475,561.316509 240.653443,561.316509 C357.220712,561.316509 451.717881,560.184077 451.717881,558.786384 C451.717881,557.388691 357.220712,556.256259 240.653443,556.256259 C124.085475,556.256259 29.5890062,557.388691 29.5890062,558.786384" id="Fill-258" fill="#AFB4C8"></path>
                    <path d="M313.375747,225.555185 C316.772438,239.198961 392.800533,267.774321 392.800533,267.774321 L399.67509,253.044306 L344.453307,218.265766 L337.515071,184.213719 L301.620982,181.908961 C301.620982,181.908961 309.247793,208.975345 313.375747,225.555185" id="Fill-260" fill="#FF77CA"></path>
                    <polygon id="Fill-262" fill="#EF3C86" points="343.258237 212.401406 311.946253 220.439014 313.055391 225.132518"></polygon>
                    <path d="M428.76327,476.102962 C428.76327,476.102962 452.298691,465.53313 471.687965,466.499686 L422.856497,506.871796 L414.881199,490.816879 L428.76327,476.102962 Z" id="Fill-264" fill="#0B096F"></path>
                    <polygon id="Fill-266" fill="#FF77CA" points="428.066927 474.887032 414.881129 490.817368 336.994441 390.714021 290.724837 339.453626 318.79058 313.395792 359.920361 363.300488"></polygon>
                    <polygon id="Fill-268" fill="#F38C01" points="293.682772 225.581501 347.929773 211.159441 332.811206 161.520706 285.161652 176.327709"></polygon>
                    <polygon id="Fill-270" fill="#121218" points="285.946656 252.95059 211.278217 364.465045 166.648878 335.365463 226.123174 227.860013"></polygon>
                    <path d="M286.8227,252.75238 L342.51403,330.18959 L302.533974,367.160905 L248.609568,309.982189 C218.352839,275.86645 212.062592,253.276602 226.123104,227.859873 L226.123104,227.859873 L286.8227,252.75238 Z" id="Fill-272" fill="#393940"></path>
                    <path d="M272.800605,147.658912 C259.397178,155.520846 251.486259,174.118486 251.486259,174.118486 C251.486259,174.118486 251.232942,187.701371 243.778274,203.720594 C237.963871,216.214441 226.123034,227.860013 226.123034,227.860013 L286.82263,252.75252 C286.82263,252.75252 312.563032,223.123116 322.949743,213.941878 C336.093555,202.323602 337.33285,192.394875 336.954974,178.634916 C336.523914,162.962142 330.374321,156.735865 329.620667,155.798005 L329.612269,155.788206 C326.900654,152.852142 323.823058,150.263226 320.338895,148.168437 L310.241189,140.872719 C310.241189,140.872719 295.609663,134.279697 272.800605,147.658912" id="Fill-274" fill="#FFC100"></path>
                    <path d="M211.662882,130.874072 C194.56676,131.927416 153.087093,199.90693 153.087093,199.90693 L165.175649,206.8499 L212.870688,154.802122 L245.822937,165.731701 L265.198215,138.379059 C265.198215,138.379059 232.437004,129.593962 211.662882,130.874072" id="Fill-276" fill="#FF77CA"></path>
                    <path d="M313.160847,122.986523 L305.110673,141.654853 L303.480905,141.868321 C303.480905,141.868321 305.293314,163.192058 320.501452,162.960392 C331.239448,162.795916 328.061785,155.619881 328.061785,155.619881 L326.018452,152.830095 L332.564816,133.705432" id="Fill-278" fill="#FF77CA"></path>
                    <polygon id="Fill-280" fill="#EF3C86" points="257.15385 135.940061 234.83953 162.150472 240.010143 163.865218"></polygon>
                    <polygon id="Fill-282" fill="#FFC100" points="232.635179 172.712675 291.577649 190.102295 286.318864 142.863504 258.113867 133.734058"></polygon>
                    <polygon id="Fill-284" fill="#F38C01" points="250.732255 178.015228 249.387294 184.505365 276.721076 186.306898"></polygon>
                    <polygon id="Fill-286" fill="#D9CEC1" points="428.76327 476.102962 414.881199 490.816879 405.426584 478.773765 421.057384 463.526528"></polygon>
                    <path d="M285.954493,22.0090746 C282.784528,36.6669998 292.09569,51.1198555 306.751008,54.290385 C321.406327,57.4609146 335.856612,48.1480964 339.026578,33.4901711 C342.196543,18.8322459 332.885381,4.37939024 318.230063,1.20886064 C303.574744,-1.96166895 289.124459,7.35114933 285.954493,22.0090746" id="Fill-288" fill="#25003F"></path>
                    <path d="M314.911326,114.328387 C316.666353,119.215062 314.329815,124.640657 312.074451,127.616616 C311.308201,128.641964 305.861878,137.445258 305.276169,137.770009 C303.001911,139.029123 324.160908,154.315555 324.160908,154.315555 L329.908133,135.402261 C336.600049,137.270283 344.632729,138.64488 349.633997,136.691469 C364.533536,130.869733 371.841951,101.019862 371.956014,99.4716916 L363.701507,84.8816563 C363.701507,84.8816563 348.898537,73.6938162 345.690084,76.377918 C339.819699,81.2960883 323.332378,105.431307 316.227596,100.718907 C316.227596,100.718907 318.999392,92.7015961 312.129033,91.2157165 C307.009504,90.1084808 304.729648,93.9117165 304.216715,96.2836646 C302.48478,104.291876 312.557993,107.747964 314.911326,114.328387" id="Fill-290" fill="#FF77CA"></path>
                    <polygon id="Fill-292" fill="#285FD7" points="365.366614 115.818746 364.873975 128.975394 359.626387 126.448769"></polygon>
                    <path d="M167.731705,206.131667 C167.731705,206.131667 167.031234,224.785999 164.567338,227.656273 C161.601705,231.109561 155.000759,234.479561 152.164584,235.354431 C149.329109,236.229301 146.723859,231.968333 146.78334,230.177999 C146.78334,230.177999 141.94162,230.088412 140.808689,224.828693 C140.808689,224.828693 137.43579,222.664614 137.952921,218.391048 C137.952921,218.391048 135.13704,215.262512 137.624728,211.626551 C140.111717,207.990591 147.70214,200.808256 153.67819,195.223785" id="Fill-294" fill="#FF77CA"></path>
                    <path d="M418.293706,261.263887 C418.293706,261.263887 419.377652,265.711027 414.84873,268.017885 C414.84873,268.017885 413.681511,271.62235 409.656424,272.181567 C409.656424,272.181567 407.474536,275.510273 403.553015,274.11538 C399.872916,272.810074 392.2573,268.148765 385.932764,264.185253 L385.925766,264.185253 C385.504504,263.922792 385.090239,263.660331 384.682972,263.404869 L386.954431,258.059762 L390.600241,249.469237 L393.257974,248.350103 C393.257974,248.350103 398.560844,246.858624 402.689497,245.80878 C403.884007,245.505025 404.974951,245.236265 405.817476,245.056391 C407.474536,244.697345 408.876178,244.856221 410.028702,245.277559 L410.0357,245.277559 C413.122393,246.409991 414.482749,249.420944 414.482749,249.420944 C414.482749,249.420944 419.761127,252.161737 421.28313,255.100601 C422.574209,257.593631 419.943767,260.884543 418.293706,261.263887" id="Fill-296" fill="#FF77CA"></path>
                    <path d="M361.445443,114.2409 C361.204722,116.663241 359.686217,118.48787 358.05435,118.315696 C356.421782,118.142821 355.29375,116.038934 355.534472,113.616593 C355.774493,111.193552 357.292998,109.369623 358.925565,109.541798 C360.557433,109.714672 361.686165,111.81856 361.445443,114.2409" id="Fill-298" fill="#0B096F"></path>
                    <path d="M358.785051,80.2775294 C358.20704,82.9511327 358.199342,85.6401337 358.689882,88.2409479 C358.75916,88.5663996 358.826338,88.9037495 358.916608,89.2334006 C359.455433,91.4394733 360.349041,93.5699572 361.553348,95.5590621 C364.804487,100.916067 370.327086,105.263822 377.191846,107.388707 C377.543831,107.496491 377.890218,107.596576 378.246402,107.686163 L380.005628,99.5512698 L379.99863,99.5491701 C380.06091,99.2965076 380.114092,99.0487443 380.169374,98.794682 C382.340766,88.7539718 380.293234,78.648871 375.09463,69.9078679 C374.128945,68.2806093 373.049197,66.7044432 371.868683,65.182869 C368.088516,66.8031286 364.842275,69.2541649 362.472148,72.3498056 C360.699627,74.6573632 359.423243,77.3253674 358.785051,80.2775294" id="Fill-300" fill="#25003F"></path>
                    <path d="M321.790151,75.0019921 C320.245055,82.1458322 325.406571,89.5654314 333.837421,93.321774 C334.504303,93.6234293 335.18938,93.8984885 335.899648,94.1462517 C337.036777,94.5577907 338.228488,94.8944407 339.455188,95.1597013 C351.075597,97.6737283 362.005331,92.7261624 363.869522,84.1048415 C364.048664,83.2761645 364.138934,82.443988 364.138388,81.6153109 C364.177422,73.8065695 356.710858,66.2119963 346.206585,63.9394334 C334.696041,61.4499028 323.867774,66.2854854 321.849632,74.7549288 C321.82584,74.8361167 321.807646,74.9194044 321.790151,75.0019921" id="Fill-302" fill="#25003F"></path>
                    <path d="M354.587821,129.458882 C354.587821,129.458882 350.736977,129.161427 352.121825,123.537061" id="Stroke-304" stroke="#0C245F" stroke-width="2.1"></path>
                    <path d="M331.654903,136.507047 C331.654903,136.507047 319.52576,132.879485 316.458661,129.922424 L329.679447,141.957838 L331.654903,136.507047 Z" id="Fill-306" fill="#EF3C86"></path>
                    <path d="M284.682098,170.311541 L303.592029,174.402434 L315.381082,119.886123 L275.986735,111.364187 L268.627936,145.391739 C266.180835,156.70696 273.368889,167.864004 284.682098,170.311541" id="Fill-308" fill="#25003F"></path>
                    <path d="M152.551628,192.001813 L154.605458,189.285516 C155.152679,188.560424 156.134459,188.321759 156.953892,188.713701 L159.364605,189.86643 C159.480767,189.921722 159.590631,189.988912 159.693498,190.0659 L171.015104,198.62843 C171.11797,198.706118 171.212439,198.793605 171.297112,198.889491 L173.063336,200.896093 C173.66304,201.577792 173.700828,202.587742 173.152906,203.311435 L171.099076,206.028432 C170.551855,206.752825 169.570075,206.992189 168.750643,206.600247 L166.339929,205.447518 C166.223767,205.391526 166.113203,205.325036 166.011037,205.247348 L154.68943,196.685518 C154.586564,196.60783 154.492095,196.520343 154.407422,196.423757 L152.641199,194.417855 C152.041494,193.736156 152.003707,192.726206 152.551628,192.001813" id="Fill-310" fill="#9191A0"></path>
                    <path d="M154.892574,191.637167 L154.892574,191.637167 C156.089184,190.054002 158.364141,189.737649 159.947025,190.935171 L170.109809,198.620731 C171.693393,199.817553 172.00899,202.092916 170.81238,203.676081 C169.615071,205.259946 167.340813,205.575599 165.757229,204.378777 L155.594445,196.693217 C154.011562,195.495695 153.695964,193.220332 154.892574,191.637167" id="Fill-312" fill="#0B0B0B"></path>
                    <path d="M156.213183,192.636129 L156.213183,192.636129 C156.843678,191.801853 158.043086,191.635277 158.877214,192.265884 C159.711342,192.89719 159.877888,194.096112 159.246693,194.930389 C158.616199,195.764665 157.41749,195.93124 156.583362,195.300634 C155.748535,194.669327 155.582689,193.470405 156.213183,192.636129" id="Fill-314" fill="#52525E"></path>
                </g>
                <g id="Man" transform="translate(589.207763, 134.179192)">
                    <path d="M47.0422918,537.089603 C47.0422918,538.487296 145.645021,539.619728 267.278637,539.619728 C388.910852,539.619728 487.513582,538.487296 487.513582,537.089603 C487.513582,535.69191 388.910852,534.559479 267.278637,534.559479 C145.645021,534.559479 47.0422918,535.69191 47.0422918,537.089603" id="Fill-317" fill="#AFB4C8"></path>
                    <path d="M53.358641,291.795177 C53.358641,291.795177 20.1159869,311.827605 0.024841895,315.334784 L56.650367,253.206402 L75.1096444,272.010512 L53.358641,291.795177 Z" id="Fill-319" fill="#0B096F"></path>
                    <path d="M298.505668,228.367788 L193.611991,377.784419 C186.101342,388.483032 171.047853,390.466537 161.023624,382.078282 L55.8710313,294.087337 L75.3274833,272.123196 L170.149346,337.292627 L254.33258,208.926772 L298.505668,228.367788 Z" id="Fill-321" fill="#FF77CA"></path>
                    <path d="M469.77206,471.153786 C469.77206,471.153786 505.212697,460.81492 525.520072,464.908612 L454.994981,508.430955 L447.012686,484.965537 L469.77206,471.153786 Z" id="Fill-323" fill="#0B096F"></path>
                    <path d="M468.97523,469.7752 L447.012196,484.965747 L380.507994,362.869562 L323.390529,302.630199 L364.483222,281.0601 L402.459132,325.315234 C410.354656,334.514669 416.756867,344.896228 421.434141,356.081269 L468.97523,469.7752 Z" id="Fill-325" fill="#FF77CA"></path>
                    <path d="M236.098909,117.13994 C221.291041,119.63787 186.681732,200.691444 186.681732,200.691444 L201.802399,209.224578 L241.310109,150.84414 L278.141192,146.250021 L283.54343,108.201566 C283.54343,108.201566 254.094238,114.104491 236.098909,117.13994" id="Fill-327" fill="#FF4B9E"></path>
                    <polygon id="Fill-329" fill="#121218" points="324.483992 227.304225 394.834839 303.629301 347.641537 346.862587 246.745656 240.773027 267.019441 208.926352"></polygon>
                    <polygon id="Fill-331" fill="#285FD7" points="276.085613 159.888968 336.007063 157.702492 332.00087 102.415595 278.860908 106.564579"></polygon>
                    <path d="M412.945001,40.7541834 C412.945001,40.7541834 426.03633,70.864416 398.035665,71.0078947" id="Fill-333" fill="#0B096F"></path>
                    <polygon id="Fill-335" fill="#393940" points="308.990627 222.614151 233.711288 343.982444 180.055594 307.663433 245.083978 195.810928"></polygon>
                    <path d="M294.947329,110.136219 C280.628601,118.534973 272.178158,138.401526 272.178158,138.401526 L245.083698,195.811208 L326.613398,230.005335 L351.458092,187.154192 C351.458092,187.154192 364.763551,169.84856 364.625382,146.581212 C364.522129,130.319825 356.450963,119.832581 355.645526,118.831029 L355.636429,118.820531 C352.739374,115.684296 349.452546,112.918307 345.729761,110.680739 L334.94278,102.887395 C334.94278,102.887395 319.313379,95.8443398 294.947329,110.136219" id="Fill-337" fill="#49A2FF"></path>
                    <path d="M275.551897,217.23027 C286.631382,231.793709 379.558963,227.729412 379.558963,227.729412 L379.607248,208.294696 L301.516926,196.187192 L312.562822,163.387958 L273.568744,158.18843 C273.568744,158.18843 262.08759,199.532696 275.551897,217.23027" id="Fill-339" fill="#FF77CA"></path>
                    <path d="M337.994275,56.9953437 C337.484841,50.8376573 321.741377,39.3516615 314.361585,51.0399273 C304.84399,66.112891 333.65499,80.4894579 333.65499,80.4894579 L326.275898,101.342864 L324.229765,101.342864 C324.229765,101.342864 329.842634,126.868077 349.206017,128.947468 C362.879555,130.41585 357.71524,121.428484 357.71524,121.428484 L354.676832,117.810021 L360.066473,96.1832295 C360.066473,96.1832295 387.281294,105.259483 393.82276,103.694515 C393.82276,103.694515 404.975721,77.71227 405.575425,57.4677736 L387.918786,31.2055701 L350.467705,24.742729 L337.994275,56.9953437 Z" id="Fill-341" fill="#FF77CA"></path>
                    <path d="M325.392926,46.2511678 C325.392926,46.2511678 309.34996,34.5335063 335.517223,18.1944305 C361.684485,1.85465483 377.437746,17.6478116 377.437746,17.6478116 C377.437746,17.6478116 388.132356,-2.98162762 402.58824,0.689327726 C423.18322,5.92035161 418.423373,38.5740069 418.423373,38.5740069 C418.423373,38.5740069 427.889885,22.5302872 433.180859,26.4805011 C438.472532,30.431415 429.532949,89.3290764 354.494331,40.8283724 C354.494331,40.8283724 357.591521,58.4587566 337.994414,56.9952737 C337.994414,56.9952737 336.405233,49.4042 325.392926,46.2511678" id="Fill-343" fill="#0B096F"></path>
                    <polyline id="Stroke-345" stroke="#001F68" stroke-width="6.3" points="349.666256 0.137319626 348.666283 15.1563913 342.639849 16.3910081 335.21877 3.77328017"></polyline>
                    <polygon id="Fill-347" fill="#EF3C86" points="360.066473 96.1830195 342.786311 87.7149759 357.894382 104.522282"></polygon>
                    <polygon id="Fill-349" fill="#EF3C86" points="312.562612 163.387748 273.568534 158.18822 271.362854 168.072853 311.614421 166.20553"></polygon>
                    <polygon id="Fill-351" fill="#EF3C86" points="222.614589 336.470948 186.651922 312.12856 180.055874 322.188168"></polygon>
                    <polygon id="Fill-353" fill="#EF3C86" points="388.685316 309.263185 357.107419 338.190593 363.268908 344.688429"></polygon>
                    <polygon id="Fill-355" fill="#285FD7" points="401.829267 74.4616723 404.081833 89.3169682 397.4375 87.7960939"></polygon>
                    <path d="M394.411967,91.4368837 C394.411967,91.4368837 387.252603,90.5214195 388.974741,83.684134" id="Stroke-357" stroke="#0D1A88" stroke-width="2.1"></path>
                    <polygon id="Fill-359" fill="#285FD7" points="312.562612 163.387748 311.614421 166.20553 320.790528 164.620266"></polygon>
                    <polygon id="Fill-361" fill="#285FD7" points="273.568814 158.18808 271.363134 168.073413 261.331907 168.308578 266.394055 157.287314"></polygon>
                    <path d="M397.43729,72.8957946 C397.461782,74.753319 395.975467,76.2790926 394.118973,76.303589 C392.261779,76.3280854 390.736277,74.8415059 390.711785,72.9839815 C390.687293,71.1264571 392.172908,69.6006835 394.030102,69.5761871 C395.887296,69.5516908 397.412798,71.0382702 397.43729,72.8957946" id="Fill-363" fill="#0B096F"></path>
                    <path d="M375.15663,209.927134 L379.122236,205.536685 C379.122236,205.536685 382.05218,202.655212 385.583228,199.917219 C389.114276,197.179225 394.998656,195.674448 398.299479,187.867806 C401.595404,180.066064 403.187384,189.373983 401.741656,193.208714 C400.536649,196.40584 395.360438,200.45054 394.89369,203.378205 C396.511562,203.865333 397.955191,203.826839 397.955191,203.826839 L425.088139,200.504432 C425.983847,200.375651 426.836868,200.929968 427.090186,201.79784 L427.372194,202.781894 C427.668197,203.81774 427.01601,204.882282 425.961454,205.071954 C420.268112,206.1113 403.189484,208.775804 403.279054,209.069761 L403.206978,209.762658 L431.686986,209.201341 C432.606486,209.154448 433.415422,209.799752 433.572871,210.706118 L433.817791,212.117109 C433.999032,213.143856 433.284565,214.106213 432.254501,214.223796 C425.932763,214.984583 404.281827,215.794363 404.3658,216.103017 L404.374897,216.916297 L428.664672,218.588348 C429.631757,218.541455 430.463785,219.269347 430.558254,220.227505 L430.666019,221.373235 C430.765387,222.374787 430.027827,223.265055 429.026454,223.354641 L405.386067,222.466473 L405.177535,223.370039 L423.167965,226.639254 C424.086766,226.698745 424.813129,227.435036 424.86911,228.354699 L424.894302,228.912517 C424.944686,229.894471 424.203628,230.741345 423.216949,230.816234 C419.832854,231.077296 411.964621,229.281362 404.39659,229.234469 C398.522706,229.199474 394.289787,230.518079 386.896,229.669104 C383.766621,229.315657 381.496561,228.48698 379.254493,227.773786" id="Fill-365" fill="#FF77CA"></path>
                    <polygon id="Fill-367" fill="#D9CEC1" points="88.0554207 280.548966 66.773964 302.947042 53.3579412 291.795597 75.1117437 272.013732"></polygon>
                    <polygon id="Fill-369" fill="#D9CEC1" points="469.77206 471.153786 447.012686 484.965537 438.20396 468.615263 463.038857 455.577597"></polygon>
                    <path d="M359.244381,218.051808 L359.916162,218.051808 L359.916162,222.272182 L359.244381,222.272182 C358.946978,222.272182 358.705557,222.030718 358.705557,221.733262 L358.705557,218.590028 C358.705557,218.292572 358.946978,218.051808 359.244381,218.051808" id="Fill-371" fill="#7E7E8E"></path>
                    <path d="M374.337967,225.106831 C374.166523,225.553365 373.631197,227.085438 373.534629,229.108838 C373.497541,229.957112 372.752984,230.84248 371.801295,230.84248 L365.368293,230.84248 C364.415904,230.84248 363.679744,229.957112 363.634959,229.108838 C363.537691,227.085438 363.003065,225.553365 362.831621,225.106831 C363.098934,225.174021 363.382341,225.203417 363.664349,225.203417 L373.505239,225.203417 C373.794944,225.203417 374.069954,225.174021 374.337967,225.106831" id="Fill-373" fill="#BABAC3"></path>
                    <path d="M362.831341,209.737462 C363.002785,209.290928 363.538111,207.758855 363.634679,205.735455 C363.671767,204.887181 364.416324,204.001813 365.368013,204.001813 L371.801015,204.001813 C372.753404,204.001813 373.489564,204.887181 373.534349,205.735455 C373.631617,207.758855 374.166243,209.290928 374.337687,209.737462 C374.070374,209.670972 373.786967,209.640876 373.504959,209.640876 L363.664069,209.640876 C363.374364,209.640876 363.099354,209.670972 362.831341,209.737462" id="Fill-375" fill="#BABAC3"></path>
                    <path d="M377.253216,211.158461 L377.253216,223.685902 C377.253216,225.456639 376.004123,226.959317 374.337967,227.33866 C374.069954,227.40515 373.794944,227.435246 373.505239,227.435246 L363.664349,227.435246 C363.382341,227.435246 363.098934,227.40515 362.831621,227.33866 C361.165465,226.959317 359.916372,225.456639 359.916372,223.685902 L359.916372,211.158461 C359.916372,209.097967 361.604221,207.409117 363.664349,207.409117 L373.505239,207.409117 C375.565366,207.409117 377.253216,209.097967 377.253216,211.158461" id="Fill-377" fill="#9191A0"></path>
                    <path d="M373.517205,226.501794 L363.651823,226.501794 C362.043748,226.501794 360.727478,225.18529 360.727478,223.576228 L360.727478,211.267855 C360.727478,209.659493 362.043748,208.342989 363.651823,208.342989 L373.517205,208.342989 C375.12598,208.342989 376.44225,209.659493 376.44225,211.267855 L376.44225,223.576228 C376.44225,225.18529 375.12598,226.501794 373.517205,226.501794" id="Fill-379" fill="#030305"></path>
                    <path d="M372.807916,225.106831 L364.360972,225.106831 C363.033505,225.106831 361.947459,224.020593 361.947459,222.69289 L361.947459,212.151054 C361.947459,210.82405 363.033505,209.737812 364.360972,209.737812 L372.807916,209.737812 C374.135383,209.737812 375.221429,210.82405 375.221429,212.151054 L375.221429,222.69289 C375.221429,224.020593 374.135383,225.106831 372.807916,225.106831" id="Fill-381" fill="#CACAD4"></path>
                    <line x1="370.911535" y1="222.782266" x2="368.584794" y2="217.422461" id="Stroke-383" stroke="#E42828" stroke-width="0.7" stroke-linecap="round"></line>
                    <line x1="368.584654" y1="217.422321" x2="371.273877" y2="214.790012" id="Stroke-385" stroke="#FFFFFF" stroke-width="1.4" stroke-linecap="round"></line>
                    <line x1="364.732481" y1="213.225674" x2="368.584724" y2="217.422252" id="Stroke-387" stroke="#FFFFFF" stroke-width="1.4" stroke-linecap="round"></line>
                    <path d="M368.729507,146.73176 C407.275031,146.73176 438.521236,178.363567 438.521236,217.383477 C438.521236,256.403388 407.275031,288.035895 368.729507,288.035895 C341.031144,288.035895 317.101751,271.701718 305.82703,248.02913" id="Stroke-389" stroke="#F91781" stroke-width="16.8" stroke-linecap="round"></path>
                    <path d="M368.866872,166.535951 C397.015888,166.535951 419.835443,189.359565 419.835443,217.513588 C419.835443,245.668311 397.015888,268.491225 368.866872,268.491225 C356.814704,268.491225 345.740117,264.307945 337.014664,257.313883" id="Stroke-391" stroke="#85EF00" stroke-width="16.8" stroke-linecap="round"></path>
                    <path d="M370.61903,186.398234 C387.273596,186.398234 400.774292,199.836241 400.774292,217.041788 C400.774292,230.211734 392.820687,241.034928 381.641134,245.593352" id="Stroke-393" stroke="#00F5BD" stroke-width="16.8" stroke-linecap="round"></path>
                    <path d="M187.221466,234.01406 C187.221466,234.01406 182.132027,234.694359 180.09849,229.36535 C180.09849,229.36535 176.216157,227.634506 176.072004,223.076783 C176.072004,223.076783 172.61933,220.245703 174.641671,216.035827 C176.535253,212.084913 182.641461,204.142492 187.816272,197.557869 L187.816972,197.54947 C188.15986,197.110635 188.501349,196.680199 188.83514,196.256062 L194.526383,199.427291 L203.675198,204.516936 L204.605894,207.616776 C204.605894,207.616776 205.638058,213.710772 206.317536,218.44277 C206.514172,219.811767 206.684916,221.061082 206.784983,222.022039 C206.988617,223.913858 206.644329,225.459229 206.037627,226.695246 L206.036228,226.702945 C204.40576,230.012054 200.885208,231.171082 200.885208,231.171082 C200.885208,231.171082 197.200211,236.734556 193.73984,238.083256 C190.805697,239.227586 187.448892,235.90028 187.221466,234.01406" id="Fill-395" fill="#FF4B9E"></path>
                </g>
            </g>
        </g>
    </g>
</svg>